<svg width="40" height="40" viewBox="0 0 40 40" fill="none" xmlns="http://www.w3.org/2000/svg">
<rect width="40" height="40" rx="20" fill="#FEF2F2"/>
<path d="M20.1895 10.8223C20.6021 10.8223 21.0077 10.9319 21.3643 11.1396C21.7207 11.3474 22.0163 11.6459 22.2197 12.0049H22.2188L28.8838 23.667L28.9561 23.8018C29.1136 24.1215 29.1961 24.4742 29.1963 24.832C29.1964 25.2414 29.0882 25.6444 28.8838 25.999C28.6793 26.3535 28.3854 26.6486 28.0312 26.8535C27.677 27.0584 27.2745 27.1656 26.8652 27.166H13.5312L13.3779 27.1611C13.0219 27.1402 12.6746 27.0392 12.3633 26.8623C12.0057 26.659 11.7082 26.3641 11.501 26.0088C11.2938 25.6536 11.1846 25.25 11.1836 24.8389C11.1827 24.4276 11.2905 24.0232 11.4961 23.667L18.1611 12.0029C18.3646 11.6447 18.6597 11.3471 19.0156 11.1396C19.3721 10.932 19.7769 10.8223 20.1895 10.8223ZM20.1895 12.1553C20.0128 12.1553 19.8392 12.2021 19.6865 12.291C19.5337 12.3801 19.4065 12.5083 19.3193 12.6621L19.3184 12.6641L12.6523 24.3311L12.6504 24.334C12.5624 24.4866 12.5162 24.6598 12.5166 24.8359C12.517 25.0121 12.5646 25.1847 12.6533 25.3369C12.7422 25.4892 12.8692 25.616 13.0225 25.7031C13.1756 25.7901 13.3492 25.8346 13.5254 25.833H26.8643L26.9941 25.8242C27.1238 25.807 27.2503 25.7651 27.3643 25.6992C27.5159 25.6114 27.6419 25.4849 27.7295 25.333C27.8171 25.1811 27.8633 25.0084 27.8633 24.833C27.8632 24.6577 27.8161 24.4858 27.7285 24.334L27.7275 24.3311L21.0615 12.6641L21.0596 12.6621C20.9724 12.5083 20.8461 12.38 20.6934 12.291C20.5405 12.202 20.3663 12.1553 20.1895 12.1553ZM20.2061 22.5C20.5742 22.5 20.873 22.7988 20.873 23.167C20.8729 23.535 20.5741 23.833 20.2061 23.833H20.1982C19.8302 23.833 19.5324 23.535 19.5322 23.167C19.5322 22.7988 19.8301 22.5 20.1982 22.5H20.2061ZM20.1982 15.834C20.5664 15.834 20.8652 16.1318 20.8652 16.5V19.833C20.8652 20.2012 20.5664 20.5 20.1982 20.5C19.8301 20.5 19.5322 20.2012 19.5322 19.833V16.5C19.5322 16.1318 19.8301 15.834 20.1982 15.834Z" fill="#F47A75"/>
</svg>
