<svg width="24" height="24" viewBox="0 0 24 24" fill="none" xmlns="http://www.w3.org/2000/svg">
<rect width="24" height="24" rx="4" fill="#B68A35" fill-opacity="0.1"/>
<path d="M12 13.3332C12.7363 13.3332 13.3333 12.7362 13.3333 11.9998C13.3333 11.2635 12.7363 10.6665 12 10.6665C11.2636 10.6665 10.6666 11.2635 10.6666 11.9998C10.6666 12.7362 11.2636 13.3332 12 13.3332Z" fill="#361E12"/>
<path d="M12 7.50016C12.7363 7.50016 13.3333 6.90321 13.3333 6.16683C13.3333 5.43045 12.7363 4.8335 12 4.8335C11.2636 4.8335 10.6666 5.43045 10.6666 6.16683C10.6666 6.90321 11.2636 7.50016 12 7.50016Z" fill="#361E12"/>
<path d="M12 19.1667C12.7363 19.1667 13.3333 18.5697 13.3333 17.8333C13.3333 17.097 12.7363 16.5 12 16.5C11.2636 16.5 10.6666 17.097 10.6666 17.8333C10.6666 18.5697 11.2636 19.1667 12 19.1667Z" fill="#361E12"/>
</svg>
