<svg width="40" height="40" viewBox="0 0 40 40" fill="none" xmlns="http://www.w3.org/2000/svg">
<rect width="40" height="40" rx="20" fill="#F9F7ED"/>
<path d="M26.6665 12.667C27.9552 12.667 28.9997 13.7115 28.9997 15.0002V25.0002C28.9997 26.2888 27.9552 27.3333 26.6665 27.3333H13.3332C12.0445 27.3333 11 26.2888 11 25.0002V15.0002C11 13.7115 12.0445 12.667 13.3332 12.667H26.6665ZM13.3332 14C12.7809 14 12.333 14.4479 12.333 15.0002V25.0002C12.333 25.5524 12.7809 26.0003 13.3332 26.0003H26.6665C27.2188 26.0003 27.6667 25.5524 27.6667 25.0002V15.0002C27.6667 14.4479 27.2188 14 26.6665 14H13.3332ZM15.008 15.8335C15.4682 15.8335 15.8413 16.2066 15.8413 16.6668C15.8413 17.1271 15.4682 17.5002 15.008 17.5002H14.9998C14.5396 17.5002 14.1665 17.1271 14.1665 16.6668C14.1665 16.2066 14.5396 15.8335 14.9998 15.8335H15.008ZM18.3413 15.8335C18.8015 15.8335 19.1746 16.2066 19.1746 16.6668C19.1746 17.1271 18.8015 17.5002 18.3413 17.5002H18.3332C17.8729 17.5002 17.4998 17.1271 17.4998 16.6668C17.4998 16.2066 17.8729 15.8335 18.3332 15.8335H18.3413ZM21.6746 15.8335C22.1349 15.8335 22.508 16.2066 22.508 16.6668C22.508 17.1271 22.1349 17.5002 21.6746 17.5002H21.6665C21.2063 17.5002 20.8332 17.1271 20.8332 16.6668C20.8332 16.2066 21.2063 15.8335 21.6665 15.8335H21.6746Z" fill="#CBA344"/>
</svg>
